{"title":"Absolutely Anything 2015 DVDRIP x264 AC3 TiTAN","uid":12738262,"size":1318302560,"categoryP":"video","categoryS":"movies","magnet":"?xt=urn:btih:8361e32a0bff1d5e239c6f390bf1ab26b053a69a&amp;dn=Absolutely+Anything+2015+DVDRIP+x264+AC3+TiTAN&amp;tr=udp%3A%2F%2Ftracker.leechers-paradise.org%3A6969&amp;tr=udp%3A%2F%2Fzer0day.ch%3A1337&amp;tr=udp%3A%2F%2Fopen.demonii.com%3A1337&amp;tr=udp%3A%2F%2Ftracker.coppersurfer.tk%3A6969&amp;tr=udp%3A%2F%2Fexodus.desync.com%3A6969","seeders":0,"leechers":0,"uploader":"TvTeam","files":3,"time":1447208105,"description":"------------------------------------------------------------------------\r\n\r  https://www.torrenting.com\r\n\r\nSign up is OPEN - for time being. Come and have fun.\r\n\r\n------------------------------------------------------------------------[img]http://i.imgur.com/0r25vyf.jpg[/img]\r\n \nhttp://www.imdb.com/title/tt1727770/\r\n\r\nGeneral\r\n\r\nSource: R2 DVD9\r\n\r\nFormat                                   : Matroska\r\nFormat version                           : Version 2\r\nFile size                                : 1.23 GiB\r\nDuration                                 : 1h 21mn\r\nOverall bit rate mode                    : Variable\r\nOverall bit rate                         : 2 149 Kbps\r\n\r\n\r\nVideo\r\nID                                       : 1\r\nFormat                                   : AVC\r\nFormat/Info                              : Advanced Video Codec\r\nFormat profile                           :   \r\nFormat settings, CABAC                   : Yes\r\nFormat settings, ReFrames                : 3 frames\r\nCodec ID                                 : V_MPEG4/ISO/AVC\r\nDuration                                 : 1h 21mn\r\nBit rate mode                            : Variable\r\nBit rate                                 : 1 700 Kbps\r\nMaximum bit rate                         : 40.0 Mbps\r\nWidth                                    : 720 pixels\r\nHeight                                   : 400 pixels\r\nDisplay aspect ratio                     : 16:9\r\nFrame rate mode                          : Constant\r\nFrame rate                               : 25.000 fps\r\nColor space                              : YUV\r\nChroma subsampling                       : 4:2:0\r\nBit depth                                : 8 bits\r\nScan type                                : Progressive\r\nBits/(Pixel*Frame)                       : 0.236\r\nStream size                              : 970 MiB (77%)\r\nDefault                                  : Yes\r\nForced                                   : No\r\nColor primaries                          : BT.709\r\nTransfer characteristics                 : BT.709\r\nMatrix coefficients                      : BT.709\r\n\r\nAudio\r\nID                                       : 2\r\nFormat                                   : AC-3\r\nFormat/Info                              : Audio Coding 3\r\nMode extension                           : CM (complete main)\r\nFormat settings, Endianness              : Big\r\nCodec ID                                 : A_AC3\r\nDuration                                 : 1h 21mn\r\nBit rate mode                            : Constant\r\nBit rate                                 : 448 Kbps\r\nChannel(s)                               : 6 channels\r\nChannel positions                        : Front: L C R, Side: L R, LFE\r\nSampling rate                            : 48.0 KHz\r\nBit depth                                : 16 bits\r\nCompression mode                         : Lossy\r\nStream size                              : 262 MiB (21%)\r\nDefault                                  : Yes\r\nForced                                   : No\r\n\r\n\r\n[img]http://i.imgur.com/UafWpLn.png[/img]\r\n[img]http://i.imgur.com/9OFC1vT.png[/img]\r\n[img]http://i.imgur.com/kzsk9we.png[/img]\r\n[img]http://i.imgur.com/p8wrfSd.png[/img]\r\n[img]http://i.imgur.com/xFSG0aN.png[/img]\r\n[img]http://i.imgur.com/5cHrzgU.png[/img]\r\n[img]http://i.imgur.com/Q7iaE2Y.png[/img]\r\n[img]http://i.imgur.com/MoGWFPJ.png[/img]","torrent":{"xt":"urn:btih:8361e32a0bff1d5e239c6f390bf1ab26b053a69a","amp;dn":"Absolutely+Anything+2015+DVDRIP+x264+AC3+TiTAN","amp;tr":["udp%3A%2F%2Ftracker.leechers-paradise.org%3A6969","udp%3A%2F%2Fzer0day.ch%3A1337","udp%3A%2F%2Fopen.demonii.com%3A1337","udp%3A%2F%2Ftracker.coppersurfer.tk%3A6969","udp%3A%2F%2Fexodus.desync.com%3A6969"],"infoHash":"8361e32a0bff1d5e239c6f390bf1ab26b053a69a","infoHashBuffer":{"type":"Buffer","data":[131,97,227,42,11,255,29,94,35,156,111,57,11,241,171,38,176,83,166,154]},"announce":[],"urlList":[]}}